<svg width="53" height="40" viewBox="0 0 53 40" fill="none" xmlns="http://www.w3.org/2000/svg">
<path d="M50.0602 27.6419C50.8358 27.2867 51.357 26.7625 50.9192 25.5533C50.4563 24.2849 49.4681 23.8622 48.3922 23.6339C49.9184 22.6784 51.2111 21.4269 49.3888 19.8288C47.9335 18.5604 45.7318 18.4462 43.6301 18.6576C44.4506 17.3059 45.0491 15.828 45.4024 14.2818C45.786 12.523 46.0112 9.83404 44.9562 8.24013C44.1514 7.02673 43.0005 6.83647 41.7787 7.17893C42.1134 6.26097 42.2883 5.29107 42.2958 4.31243C42.2958 2.19849 40.9197 0.00844328 38.6512 -0.0126961C35.7948 -0.0380634 33.2678 3.92346 31.8125 5.97821C29.6984 8.97578 27.7593 12.0917 25.8537 15.2204C24.6319 12.9035 23.506 10.5232 21.5253 8.74748C19.7013 7.18033 17.4203 6.26384 15.0327 6.13887C12.6558 5.9613 10.0079 6.43905 8.12306 8.03296C7.10143 8.90814 6.57601 9.99047 6.10898 11.2335C5.54604 12.7471 5.42094 13.4447 3.85721 14.007C2.73549 14.4086 1.60544 14.7976 0.479554 15.195C-0.7339 15.6178 0.654692 17.0257 1.35524 17.1906C3.69041 17.7233 6.63856 17.9981 8.15225 20.1163C9.79521 22.4078 10.5041 25.7351 11.6759 28.3268C13.7608 32.9775 16.4296 37.0193 21.4752 38.6344C26.6877 40.2917 32.8008 40.6257 37.9173 38.6048C40.7821 37.4759 42.988 35.5565 45.5233 33.878C46.7592 33.0473 48.1705 32.523 49.6432 32.3475C50.7941 32.1826 51.7615 32.0135 52.754 31.3667C53.171 31.0961 52.9917 30.576 52.754 30.2463C52.0595 29.1848 51.139 28.2948 50.0602 27.6419ZM44.2515 31.6161C41.9038 33.0324 39.9272 34.9265 37.4336 36.123C34.5515 37.4845 31.3711 38.0671 28.2013 37.8142C25.1573 37.6155 21.3793 37.3914 18.794 35.5396C13.9109 32.0558 13.3105 25.4434 10.5416 20.5179C9.23644 18.1968 7.20568 17.0299 4.95391 16.2647C6.34667 15.7573 7.52676 15.0301 8.14391 13.3855C9.18223 10.6162 10.4833 8.85317 13.5065 8.31201C15.9167 7.88922 18.7231 8.2655 20.5245 10.0708C22.6095 12.1425 23.581 15.1865 25.1114 17.681C25.4033 18.1503 26.7294 19.0212 27.1964 18.2814C29.8526 13.8294 32.4964 9.14913 35.8615 5.18337C36.633 4.27015 37.5295 3.11594 38.5637 2.52403C40.436 1.46283 39.9814 3.75435 39.6937 4.92124C39.0807 7.41992 37.5545 9.57191 36.0117 11.5717C35.3361 12.4384 37.5087 14.0154 38.2217 13.1402C39.185 11.9522 41.3992 9.60151 43.3216 9.20832C43.7386 10.6077 43.088 13.1741 42.7503 14.248C42.0856 16.139 41.0975 17.8964 39.8313 19.4398C39.7374 19.5595 39.6899 19.7099 39.6979 19.8626C39.2891 20.2612 38.9047 20.6848 38.547 21.1309C37.5394 22.2935 36.451 23.3814 35.2903 24.3864C32.6924 26.5469 29.1479 28.1915 25.8328 26.7118C24.194 25.9846 24.2441 27.8575 25.5284 28.424C26.8797 29.0322 28.3457 29.3333 29.8239 29.3062C31.302 29.2792 32.7564 28.9247 34.0851 28.2676C35.5559 27.5437 36.9076 26.5939 38.0925 25.4518C39.1391 24.4921 41.0906 21.4523 42.5168 21.2789C42.792 21.2451 42.9338 21.1309 42.9713 20.9745C44.3265 20.6743 46.0404 20.3446 46.8702 20.8223C47.504 21.1859 47.2872 21.1521 46.5491 21.7186C45.9261 22.1249 45.2816 22.4961 44.6184 22.8306C43.7844 23.321 44.9687 24.3906 45.4065 24.6232C45.7276 24.7923 47.9085 25.1855 48.0044 25.3292C48.3672 25.8577 47.0912 26.2086 46.4615 26.4327C46.203 26.4327 46.0696 26.5257 46.0237 26.6737C45.54 27.2191 46.6075 28.3226 47.4915 28.4832L47.5874 28.5086C48.5901 28.6325 49.5212 29.0993 50.227 29.8319C48.3714 30.7071 46.1196 30.4915 44.2515 31.6161Z" fill="black"/>
<path d="M13.3063 11.9057C12.6516 11.5886 11.7384 11.4829 11.2422 12.134C11.1979 12.1918 11.1691 12.2602 11.1588 12.3327C11.1347 12.3718 11.1137 12.4128 11.0962 12.4553C11.0159 12.7894 11.0604 13.1419 11.2213 13.4446C11.4922 13.98 11.9328 14.4074 12.4723 14.658C13.1895 14.992 14.1778 15.0174 14.5281 14.1634C14.8867 13.2332 14.0986 12.2904 13.3063 11.9057Z" fill="black"/>
</svg>
