<svg width="38" height="59" viewBox="0 0 38 59" fill="none" xmlns="http://www.w3.org/2000/svg">
<path d="M37.9738 52.5349C37.1299 46.9868 36.1988 41.4387 35.1803 35.8905C34.8224 33.8961 34.4441 31.8973 34.0455 29.8942C35.8351 29.4562 38.5412 29.0182 37.6421 26.9464C37.5873 26.7625 37.4968 26.5913 37.3758 26.4427C36.282 24.9703 35.0175 23.6337 33.609 22.4611C32.9391 21.8624 32.2289 21.3106 31.4833 20.8098C30.7632 20.1966 29.8989 20.1134 28.9299 20.2623C27.9086 13.99 26.8901 7.71917 25.8746 1.44978C25.7262 0.718305 24.6175 -0.214657 23.8449 0.0437688C16.3844 2.52335 8.72499 4.35369 0.951525 5.51452C0.871354 5.52475 0.794196 5.55168 0.72499 5.59356C0.655785 5.63544 0.596056 5.69136 0.549628 5.75775C0.503199 5.82413 0.471095 5.89951 0.455369 5.97906C0.439642 6.05861 0.440642 6.14058 0.458302 6.21972C2.14312 12.6176 3.5544 19.0797 4.69216 25.6061C4.6989 25.6344 4.70765 25.6622 4.71835 25.6893C4.20436 25.7221 3.70033 25.8467 3.22995 26.0572C3.18877 26.0869 3.14941 26.1191 3.1121 26.1536H3.02481C2.94336 26.1648 2.86514 26.193 2.7952 26.2363C2.72525 26.2797 2.66512 26.3372 2.61866 26.4053C2.57221 26.4734 2.54046 26.5504 2.52547 26.6315C2.51047 26.7127 2.51255 26.796 2.53158 26.8763C2.24265 27.5798 2.00345 28.3028 1.81576 29.0401C1.06485 31.3134 0.458376 33.6322 -2.7176e-06 35.9825C-0.187689 36.9286 1.20032 37.7346 1.99908 37.6338C2.728 37.5375 3.45692 37.428 4.18148 37.3141C5.28141 44.0945 6.41626 50.8661 7.58603 57.629C7.7388 58.505 9.52837 59.381 9.98231 58.8379L37.4806 53.2401C37.5602 53.2287 37.6366 53.2009 37.7052 53.1587C37.7737 53.1165 37.8329 53.0606 37.8791 52.9945C37.9253 52.9285 37.9576 52.8536 37.9738 52.7746C37.9901 52.6955 37.9901 52.614 37.9738 52.5349ZM3.10337 7.52061C6.1471 7.05048 9.16755 6.47814 12.1647 5.80361C12.4266 7.45052 12.7147 9.08868 13.0377 10.7225C10.1613 11.4145 7.27613 12.0891 4.41718 12.8556C4.00107 11.0743 3.56313 9.29601 3.10337 7.52061ZM26.6253 20.7222C24.4429 21.2041 22.2605 21.7647 20.1087 22.2597L17.983 22.7458C17.7844 21.3326 17.5134 19.9306 17.1711 18.5453C20.081 17.7336 22.9792 16.9072 25.8658 16.0662L26.6253 20.7222ZM16.5863 16.1757C16.4684 15.6851 16.3506 15.1989 16.2371 14.7084C16.0668 13.9856 15.9097 13.2585 15.7569 12.5183C18.8123 11.7693 21.8677 10.9721 24.8707 9.98223C25.0685 11.197 25.2664 12.4088 25.4643 13.6177C22.5078 14.4967 19.5485 15.3493 16.5863 16.1757ZM24.504 7.76589C24.3005 7.68672 24.0769 7.67596 23.8668 7.73523C21.0384 8.68571 18.1663 9.45223 15.2768 10.1706C14.9669 8.54555 14.6963 6.91177 14.4519 5.27361C17.5451 4.52024 20.6164 3.65881 23.666 2.68935L24.504 7.76589ZM13.5309 13.0702C13.6007 13.3812 13.6662 13.6966 13.736 14.0075C13.9543 14.9317 14.1725 15.8559 14.4082 16.7801C11.5478 17.5656 8.6816 18.3438 5.80955 19.1147C5.53894 17.8007 5.25522 16.5173 4.96715 15.2208C7.80427 14.4543 10.6719 13.7579 13.5309 13.0702ZM6.63014 21.3924C9.41197 20.6565 12.1894 19.9046 14.9626 19.1366C15.2716 20.5002 15.4888 21.883 15.6129 23.2758L9.28831 24.7213L6.98369 25.2381C6.75672 23.9635 6.51665 22.6845 6.26786 21.4143C6.38957 21.434 6.51386 21.431 6.6345 21.4055L6.63014 21.3924ZM26.7344 29.5175C23.8624 30.3935 20.9816 31.1951 18.0834 31.9572C13.0919 33.2842 8.03687 34.3572 2.93751 35.1722C3.13829 35.1415 3.56604 32.0141 3.71445 31.5323C3.98943 30.6563 4.01562 29.6095 4.5263 28.8123C5.08936 27.9363 6.07144 27.9363 7.00115 27.7129L10.7985 26.8369L15.7133 25.7725L23.858 23.9986L27.9304 23.1225C28.5723 23.0267 29.2057 22.8802 29.8247 22.6845C30.3965 22.4568 30.7457 22.6013 31.2782 22.978L32.2254 23.6525C33.0756 24.2873 33.8464 25.0226 34.5212 25.8426C34.8617 26.2368 35.4335 26.6222 34.7744 26.885C34.255 27.0997 33.705 27.2617 33.1725 27.4501C31.0425 28.1421 28.8732 28.8824 26.7344 29.5175ZM6.51229 36.9374C12.0884 35.9457 17.611 34.6724 23.0593 33.1223C25.9924 32.3076 28.9081 31.436 31.8194 30.5468C33.158 37.4236 34.3554 44.3237 35.4117 51.2472L9.77716 56.4683C8.65395 49.9653 7.56566 43.455 6.51229 36.9374Z" fill="black"/>
<path d="M16.5339 44.2391C17.5116 45.9911 18.6552 47.5855 20.2963 48.7549C20.4547 48.869 20.628 48.9604 20.8114 49.0265C20.8399 49.0379 20.8676 49.051 20.8943 49.0659C22.9371 49.7887 24.5258 46.3547 24.9099 44.8216C25.3857 42.9469 25.1413 39.6794 22.5006 39.7757C21.3788 39.8195 21.1169 41.0022 20.7546 41.9001C20.7197 41.9965 20.6892 42.0972 20.6543 42.1936C20.5153 41.9132 20.3579 41.6425 20.1829 41.3832C19.4845 40.3758 17.5378 38.7552 16.1934 39.5042C14.6526 40.3758 15.9446 43.1878 16.5339 44.2391Z" fill="black"/>
</svg>
