<svg width="43" height="51" viewBox="0 0 43 51" fill="none" xmlns="http://www.w3.org/2000/svg">
<path d="M5.28394 16.7651C1.87994 17.7614 -1.74596 20.5167 0.925318 24.2015C3.15696 27.2694 6.69913 28.0739 10.3334 27.5737C10.0989 27.853 9.86446 28.1323 9.64255 28.4074C7.46115 31.2085 6.71169 35.4228 10.1659 37.632C13.6202 39.8412 17.7987 37.0776 19.9383 34.2973C20.8977 33.0447 21.6497 31.6473 22.1657 30.1581C22.4827 32.1451 22.5893 34.1597 22.4839 36.1689C22.1783 40.9709 19.8085 44.9683 17.6061 49.1242C17.0744 50.1246 19.327 51.6252 19.8252 50.6748C22.0945 46.3897 24.5565 42.2589 24.8496 37.311C24.9588 35.3849 24.8789 33.4527 24.6109 31.542C25.1948 32.3966 25.8579 33.1949 26.5913 33.9263C29.3422 36.6316 34.9652 40.008 38.767 37.3652C43.1382 34.3223 38.6079 28.7367 35.8989 26.4358C34.7748 25.4771 33.5524 24.6388 32.2521 23.9347C34.1128 23.8009 35.9354 23.3424 37.6365 22.58C40.8563 21.1002 44.5157 17.3487 42.3008 13.6347C40.2701 10.2291 36.1418 11.3171 33.1272 12.5009C31.9778 12.9506 30.8589 13.4741 29.7776 14.0682C30.5504 12.6525 31.1654 11.1569 31.6115 9.60804C32.474 6.42341 32.6331 2.10498 29.0993 0.458473C25.3981 -1.25056 21.9271 2.22169 20.7631 5.43967C20.5442 6.05107 20.3666 6.67633 20.2314 7.31127L20.1686 7.19456C18.0039 3.63894 13.8169 0.200034 9.3704 0.737754C7.40672 0.975351 5.69426 2.08414 5.3593 4.13081C4.9741 6.50261 6.58189 8.85357 7.78355 10.7585C9.04931 12.8348 10.6121 14.7164 12.4227 16.3441C10.0396 15.9893 7.60832 16.1327 5.28394 16.7651ZM18.9962 30.7834C18.2926 32.1579 17.3353 33.3882 16.1742 34.4098C15.0772 35.3561 12.05 37.4444 10.6307 35.8771C8.23992 33.2427 12.6195 28.9576 14.3152 27.2861C14.7758 26.8276 15.2531 26.3941 15.7346 25.9647C16.7383 25.5124 17.708 24.9886 18.6361 24.3974C17.5852 25.8022 16.4422 27.0944 14.9725 27.8197C13.93 28.3199 15.9104 30.1248 16.865 29.6621C18.2928 28.9785 19.4358 27.778 20.4533 26.4608C20.1945 27.9678 19.703 29.426 18.9962 30.7834ZM36.8954 35.5478C33.6254 37.9321 28.7895 34.2264 26.8677 31.6796C25.4334 29.7491 24.2817 27.6256 23.4469 25.3728C23.3381 24.9018 23.225 24.4349 23.1162 23.9639C24.209 24.4183 25.1427 25.5062 25.9717 26.2565C27.0379 27.2152 28.0944 28.1879 29.1412 29.1744C30.1502 30.1123 31.9548 29.5412 30.6317 28.3074C29.0114 26.7984 27.3952 25.2728 25.7121 23.8347L25.5823 23.7263C26.2019 23.8013 26.8384 23.868 27.4455 23.9222C29.4225 24.3835 31.303 25.1863 33.0016 26.294C35.4174 27.8613 40.7307 32.7633 36.8954 35.5478ZM40.5799 15.4938C40.2408 18.8535 36.1795 20.9127 33.2905 21.5963C31.2018 22.0432 29.0553 22.1586 26.9305 21.9381C26.3945 21.8089 25.8461 21.7047 25.2976 21.6213C26.6165 21.2461 28.1907 20.7084 28.4503 20.6417C29.9966 20.253 31.5636 19.951 33.1439 19.7372C34.4754 19.5496 32.7001 17.5905 31.6952 17.7322C30.4391 17.9073 29.1831 18.149 27.927 18.4241C29.0559 17.5433 30.2513 16.7504 31.5026 16.0523C33.1062 15.1603 41.0321 11.0253 40.5799 15.4938ZM22.4128 10.275C22.4827 8.44726 22.9894 6.66248 23.8908 5.06869C24.7658 3.64728 26.5202 1.73399 28.354 2.30923C29.5222 2.68855 29.6729 3.34298 29.7609 4.53931C29.7939 5.26501 29.7447 5.99211 29.6143 6.70686C29.3001 8.53365 28.7219 10.3055 27.8977 11.9673C26.991 13.7872 25.901 15.5106 24.6444 17.1111C25.2055 15.4646 25.5948 13.7764 25.3352 12.2091C25.1678 11.217 22.7226 10.1958 22.9445 11.5422C23.066 12.4868 22.9613 13.4467 22.6389 14.3433C22.5551 13.7973 22.4546 13.2595 22.3332 12.726C22.329 11.9048 22.3458 11.0878 22.4128 10.275ZM9.70954 10.3959C8.75911 8.88692 7.2853 6.81941 7.80029 4.91863C8.37391 2.85945 10.8107 2.46763 12.5902 2.88863C16.8357 3.89738 18.8706 7.40715 19.821 11.4505C19.8453 13.7927 20.061 16.1292 20.4658 18.4366C19.8487 16.3318 18.8357 14.3628 17.4805 12.6343C17.1498 12.2174 16.3919 11.6047 15.8057 11.8006C15.2196 11.9965 15.2154 12.5342 15.5671 12.9844C16.6398 14.3517 17.4645 15.8949 18.0039 17.5446C17.5098 17.4029 17.0116 17.2695 16.5133 17.1278C13.5615 15.8398 11.4346 13.1428 9.70954 10.3959ZM16.7478 19.0411C17.2034 19.2285 17.6688 19.3913 18.1421 19.5288L17.3172 19.5913C15.0652 19.7502 12.8268 20.0636 10.6181 20.5292C9.2741 20.8085 11.0661 22.7426 12.0626 22.5342C13.4192 22.2549 14.7799 22.0173 16.1533 21.8464C16.3291 21.8464 16.572 21.788 16.8232 21.7422C15.8518 22.4299 14.9056 23.1636 13.997 23.9389C13.7793 24.0348 13.5783 24.1306 13.3396 24.2182C10.4841 25.3686 5.11227 27.0485 2.87225 23.8514C0.401949 20.3374 7.0592 18.52 9.3076 18.2908C11.7988 18.0198 14.2901 18.4241 16.7478 19.0411Z" fill="black"/>
</svg>
