<svg width="156" height="59" viewBox="0 0 156 59" fill="none" xmlns="http://www.w3.org/2000/svg">
<path d="M53.0511 50V42.7273H55.4126C55.853 42.7273 56.2247 42.8054 56.5277 42.9616C56.8307 43.1179 57.0604 43.3369 57.2166 43.6186C57.3752 43.9003 57.4545 44.2282 57.4545 44.6023C57.4545 44.8958 57.4072 45.1562 57.3125 45.3835C57.2178 45.6108 57.0852 45.799 56.9148 45.9482C56.7467 46.0949 56.549 46.1967 56.3217 46.2536V46.2962C56.5727 46.3151 56.8059 46.4027 57.0213 46.5589C57.2367 46.7128 57.4096 46.9223 57.5398 47.1875C57.6723 47.4527 57.7386 47.7616 57.7386 48.1143C57.7386 48.486 57.6581 48.8139 57.4972 49.098C57.3385 49.3797 57.1006 49.6011 56.7834 49.7621C56.4661 49.9207 56.0732 50 55.6044 50H53.0511ZM53.495 49.5881H55.6044C56.1513 49.5881 56.5715 49.4508 56.8651 49.1761C57.161 48.9015 57.3089 48.5476 57.3089 48.1143C57.3089 47.8089 57.2367 47.5355 57.0923 47.294C56.9503 47.0526 56.7526 46.862 56.4993 46.7223C56.246 46.5803 55.9524 46.5092 55.6186 46.5092H53.495V49.5881ZM53.495 46.1044H55.5653C55.8755 46.1044 56.1383 46.0369 56.3537 45.902C56.5715 45.767 56.7372 45.5859 56.8509 45.3587C56.9669 45.1314 57.0249 44.8793 57.0249 44.6023C57.0249 44.1525 56.8852 43.7962 56.6058 43.5334C56.3265 43.2706 55.9287 43.1392 55.4126 43.1392H53.495V46.1044ZM59.7061 50H59.2374L61.8617 42.7273H62.373L64.9973 50H64.5286L62.1351 43.299H62.0996L59.7061 50ZM60.3702 47.2621H63.8645V47.674H60.3702V47.2621ZM66.8539 50V42.7273H67.2978V46.9496H67.3475L71.1827 42.7273H71.7722L68.6152 46.1683L71.7438 50H71.1898L68.3311 46.4879L67.2978 47.6314V50H66.8539ZM73.6332 50V42.7273H77.6815V43.1392H74.0771V46.1541H77.4648V46.5661H74.0771V49.5881H77.7667V50H73.6332ZM80.0218 50V42.7273H82.2626C82.7219 42.7273 83.1172 42.8172 83.4487 42.9972C83.7801 43.1771 84.0346 43.4268 84.2122 43.7464C84.3897 44.0637 84.4785 44.433 84.4785 44.8544C84.4785 45.2711 84.3897 45.638 84.2122 45.9553C84.0346 46.2701 83.7801 46.5163 83.4487 46.6939C83.1196 46.8714 82.7254 46.9602 82.2662 46.9602H80.2598V46.5447H82.2555C82.6296 46.5447 82.9492 46.4749 83.2143 46.3352C83.4795 46.1955 83.6831 46.0002 83.8251 45.7493C83.9672 45.496 84.0382 45.1977 84.0382 44.8544C84.0382 44.5088 83.9672 44.2081 83.8251 43.9524C83.6831 43.6944 83.4783 43.4943 83.2108 43.3523C82.9456 43.2102 82.626 43.1392 82.252 43.1392H80.4657V50H80.0218ZM83.0083 46.7045L84.7981 50H84.2868L82.5076 46.7045H83.0083ZM85.7012 42.7273H86.2267L88.5172 46.2358H88.5669L90.8574 42.7273H91.383L88.7658 46.701V50H88.3184V46.701L85.7012 42.7273Z" fill="black"/>
<path d="M94 46H97" stroke="black" stroke-linecap="round"/>
<path d="M47 46H50" stroke="black" stroke-linecap="round"/>
<path d="M3 47V58H145V47" stroke="black"/>
<path d="M3 13V1C58.4544 1 89.5456 1 145 1V13" stroke="black"/>
<path d="M7.36364 36H2.52273V18.5455H7.73864C9.375 18.5455 10.7756 18.892 11.9403 19.5852C13.1051 20.2784 13.9972 21.2727 14.6165 22.5682C15.2415 23.858 15.5511 25.4062 15.5455 27.2131C15.5398 29.0597 15.2159 30.6392 14.5739 31.9517C13.9318 33.2585 13.0028 34.2614 11.7869 34.9602C10.571 35.6534 9.09659 36 7.36364 36ZM3.58807 35.0114H7.32102C8.87784 35.0114 10.1903 34.7017 11.2585 34.0824C12.3267 33.4574 13.1335 32.5625 13.679 31.3977C14.2301 30.233 14.5028 28.8381 14.4972 27.2131C14.4972 25.6108 14.233 24.2386 13.7045 23.0966C13.1761 21.9489 12.4063 21.0682 11.3949 20.4545C10.3892 19.8409 9.15625 19.5341 7.69602 19.5341H3.58807V35.0114ZM32.8837 36.2386C31.8893 36.2386 31.0058 36.0312 30.2331 35.6165C29.4661 35.2017 28.8609 34.642 28.4178 33.9375C27.9803 33.2273 27.7615 32.429 27.7615 31.5426C27.7615 30.9517 27.878 30.4119 28.1109 29.9233C28.3439 29.429 28.6962 28.9432 29.1678 28.4659C29.645 27.983 30.2473 27.4716 30.9746 26.9318L33.5229 25.0312C34.2388 24.4972 34.7615 23.9972 35.0911 23.5312C35.4263 23.0597 35.5939 22.5199 35.5939 21.9119C35.5939 21.1847 35.3439 20.5625 34.8439 20.0455C34.3496 19.5284 33.7189 19.2699 32.9518 19.2699C32.4291 19.2699 31.949 19.4062 31.5115 19.679C31.0797 19.946 30.7331 20.2955 30.4717 20.7273C30.2161 21.1591 30.0882 21.6222 30.0882 22.1165C30.0882 22.5028 30.1791 22.8864 30.3609 23.267C30.5484 23.642 30.8126 24.0568 31.1536 24.5114C31.5001 24.9602 31.9149 25.483 32.3979 26.0795L40.3411 36H39.0797L31.7842 26.9062C31.2217 26.2131 30.7359 25.6051 30.3268 25.0824C29.9178 24.5597 29.6024 24.0625 29.3808 23.5909C29.1592 23.1193 29.0484 22.6222 29.0484 22.0994C29.0484 21.4006 29.2189 20.767 29.5598 20.1989C29.9064 19.625 30.3723 19.1705 30.9575 18.8352C31.5428 18.5 32.2018 18.3324 32.9348 18.3324C33.6621 18.3324 34.3041 18.4915 34.8609 18.8097C35.4178 19.1222 35.8524 19.5511 36.1649 20.0966C36.4774 20.6364 36.6337 21.2415 36.6337 21.9119C36.6337 22.6562 36.4348 23.3295 36.0371 23.9318C35.645 24.5341 35.0342 25.1562 34.2047 25.7983L31.3411 27.929C30.3865 28.6562 29.7246 29.304 29.3553 29.8722C28.9916 30.4403 28.8098 30.9972 28.8098 31.5426C28.8098 32.2244 28.9859 32.8466 29.3382 33.4091C29.6905 33.9716 30.1706 34.4233 30.7786 34.7642C31.3922 35.1051 32.0882 35.2784 32.8666 35.2841C33.6507 35.2727 34.3751 35.1193 35.0399 34.8239C35.7047 34.5284 36.2899 34.1165 36.7956 33.5881C37.307 33.054 37.7217 32.4205 38.0399 31.6875C38.3638 30.9489 38.574 30.1278 38.6706 29.2244L39.6848 29.2756C39.628 29.9858 39.503 30.625 39.3098 31.1932C39.1166 31.7557 38.8922 32.2528 38.6365 32.6847C38.3865 33.1165 38.145 33.483 37.9121 33.7841C37.8439 33.875 37.7786 33.9631 37.7161 34.0483C37.6536 34.1335 37.5854 34.2159 37.5115 34.2955C36.9376 34.9148 36.2331 35.3949 35.3979 35.7358C34.5683 36.071 33.7303 36.2386 32.8837 36.2386ZM57.3043 36H52.4634V18.5455H57.6793C59.3156 18.5455 60.7162 18.892 61.881 19.5852C63.0457 20.2784 63.9378 21.2727 64.5571 22.5682C65.1821 23.858 65.4918 25.4062 65.4861 27.2131C65.4804 29.0597 65.1565 30.6392 64.5145 31.9517C63.8724 33.2585 62.9435 34.2614 61.7276 34.9602C60.5116 35.6534 59.0372 36 57.3043 36ZM53.5287 35.0114H57.2616C58.8185 35.0114 60.131 34.7017 61.1991 34.0824C62.2673 33.4574 63.0741 32.5625 63.6196 31.3977C64.1707 30.233 64.4435 28.8381 64.4378 27.2131C64.4378 25.6108 64.1736 24.2386 63.6452 23.0966C63.1168 21.9489 62.3469 21.0682 61.3355 20.4545C60.3298 19.8409 59.0969 19.5341 57.6366 19.5341H53.5287V35.0114ZM78.793 36V18.5455H84.1709C85.2732 18.5455 86.222 18.7614 87.0175 19.1932C87.8129 19.625 88.4237 20.2244 88.8499 20.9915C89.276 21.7528 89.4891 22.6392 89.4891 23.6506C89.4891 24.6506 89.276 25.5312 88.8499 26.2926C88.4237 27.0483 87.8129 27.6392 87.0175 28.0653C86.2277 28.4915 85.2817 28.7045 84.1794 28.7045H79.3641V27.7074H84.1538C85.0516 27.7074 85.8186 27.5398 86.455 27.2045C87.0913 26.8693 87.58 26.4006 87.9209 25.7983C88.2618 25.1903 88.4322 24.4744 88.4322 23.6506C88.4322 22.821 88.2618 22.0994 87.9209 21.4858C87.58 20.8665 87.0885 20.3864 86.4464 20.0455C85.8101 19.7045 85.043 19.5341 84.1453 19.5341H79.8584V36H78.793ZM85.9607 28.0909L90.2561 36H89.0288L84.7589 28.0909H85.9607ZM108.83 27.2727C108.83 29.0739 108.517 30.6477 107.892 31.9943C107.267 33.3352 106.398 34.3778 105.284 35.1222C104.176 35.8665 102.898 36.2386 101.449 36.2386C99.9945 36.2386 98.7104 35.8665 97.5967 35.1222C96.4888 34.3722 95.6223 33.3267 94.9973 31.9858C94.3723 30.6392 94.0598 29.0682 94.0598 27.2727C94.0598 25.4716 94.3723 23.9006 94.9973 22.5597C95.628 21.2187 96.4973 20.1761 97.6053 19.4318C98.7132 18.6818 99.9945 18.3068 101.449 18.3068C102.898 18.3068 104.176 18.679 105.284 19.4233C106.398 20.1676 107.267 21.2131 107.892 22.5597C108.517 23.9006 108.83 25.4716 108.83 27.2727ZM107.79 27.2727C107.79 25.6534 107.517 24.25 106.972 23.0625C106.432 21.875 105.685 20.9574 104.73 20.3097C103.776 19.6562 102.682 19.3295 101.449 19.3295C100.216 19.3295 99.1223 19.6534 98.1678 20.3011C97.2132 20.9432 96.4632 21.8608 95.9178 23.054C95.378 24.2415 95.1081 25.6477 95.1081 27.2727C95.1081 28.8807 95.3751 30.2812 95.9092 31.4744C96.449 32.6619 97.1962 33.5824 98.1507 34.2358C99.1053 34.8892 100.205 35.2159 101.449 35.2159C102.682 35.2159 103.776 34.892 104.73 34.2443C105.685 33.5909 106.432 32.6705 106.972 31.483C107.517 30.2955 107.79 28.892 107.79 27.2727ZM111.6 18.5455H112.861L118.359 26.9659H118.478L123.975 18.5455H125.236L118.955 28.0824V36H117.881V28.0824L111.6 18.5455ZM127.259 36H126.134L132.432 18.5455H133.659L139.958 36H138.833L133.088 19.9176H133.003L127.259 36ZM128.853 29.429H137.239V30.4176H128.853V29.429ZM144.413 36V18.5455H145.479V35.0114H154.001V36H144.413Z" fill="black"/>
</svg>
