<svg width="52" height="52" viewBox="0 0 52 52" fill="none" xmlns="http://www.w3.org/2000/svg">
<path d="M8.03245 51.732C11.2752 51.644 14.5152 51.5629 17.7525 51.4887C20.2011 51.4351 22.658 51.4887 25.1066 51.4887C27.5552 51.4887 30.1734 51.8144 32.6096 51.7114C32.7027 51.7073 32.7953 51.6963 32.8867 51.6784C33.1265 51.7694 33.3915 51.7694 33.6312 51.6784C34.5495 51.2661 34.8721 50.5281 35.476 49.7489C36.0799 48.9697 36.9774 48.3266 37.3621 47.333C38.3093 44.8965 37.7385 41.454 37.7757 38.8897C37.8336 32.7427 37.8171 26.5916 37.5772 20.4487C37.5469 20.2656 37.4772 20.0913 37.373 19.9376C37.2688 19.7838 37.1324 19.6544 36.9733 19.5582C36.8084 19.3205 36.5941 19.1209 36.3451 18.9729C36.096 18.825 35.818 18.7321 35.5297 18.7007C33.8753 18.7707 32.2456 18.8243 30.6036 18.8779C30.6036 17.6164 30.5746 16.3548 30.5457 15.0974C30.5002 13.1762 30.6573 10.6325 29.433 9.004C27.4808 6.40668 23.4521 6.72 20.5982 6.84781C18.1992 6.94957 15.8134 7.25717 13.4674 7.76718C11.9453 8.10112 9.57938 8.3526 8.50398 9.61828C7.3293 10.9829 7.20935 13.6957 6.97773 15.3654C6.81228 16.5775 6.71301 17.7895 6.65924 19.0057C6.05491 18.9846 5.45034 19.04 4.86001 19.1706C2.6637 19.7107 1.28221 22.5472 0.248171 24.3818C0.17793 24.4122 0.117538 24.4614 0.0737208 24.524C0.0299037 24.5866 0.00438251 24.6601 0 24.7363C0 33.1921 0.388801 41.6395 0.388801 50.12C0.41034 50.4282 0.518307 50.7242 0.700398 50.9742C0.882489 51.2242 1.13138 51.4182 1.41871 51.5341C3.25103 52.4287 6.05536 51.7815 8.03245 51.732ZM35.3312 44.4389C35.2444 45.8035 34.8142 46.5002 33.9166 47.4979C33.7242 47.7144 33.546 47.943 33.3831 48.1823C33.4617 40.7078 33.4658 33.2333 33.5444 25.7588C33.642 25.7555 33.7373 25.7282 33.8217 25.6793C33.9062 25.6304 33.9771 25.5613 34.0283 25.4784L35.3229 23.3511C35.4429 27.8861 35.4553 32.3799 35.4222 36.8943C35.3891 39.3968 35.4718 41.9405 35.3188 44.4389H35.3312ZM14.063 9.93986C15.7061 9.54727 17.372 9.25674 19.0512 9.06996C20.7894 8.87418 22.5388 8.79567 24.2876 8.83496C24.9517 8.82797 25.6153 8.87069 26.273 8.96277C27.6876 9.21838 27.8034 10.1419 28.006 11.4158C28.3866 13.8523 28.3204 16.429 28.279 18.9521C23.5307 19.0813 18.781 19.1418 14.0299 19.1335C12.3423 19.1335 10.6534 19.1212 8.96309 19.0964C9.04995 16.7877 9.32708 14.4171 10.0964 12.4424C10.8078 10.5954 12.3093 10.3604 14.063 9.93986ZM6.58893 21.2196C6.58893 21.5453 6.58893 21.871 6.58893 22.1967C6.60961 23.1903 8.9755 24.2581 8.94655 22.8564C8.94655 22.2833 8.94655 21.6896 8.92587 21.0795C11.8212 21.0795 14.6793 21.1413 17.5581 21.1331C21.1234 21.1331 24.6902 21.0808 28.2584 20.9764V21.4629C28.2584 22.4606 30.6367 23.5243 30.6201 22.1225C30.6201 21.7103 30.6201 21.298 30.6201 20.9104C31.6583 20.8816 32.6882 20.8445 33.7429 20.8074L32.0885 23.5366L31.9106 23.4995C31.2501 23.4568 30.5868 23.4886 29.9335 23.5943C21.1084 24.4281 12.2384 24.6911 3.37926 24.3818C3.71842 23.8541 4.07689 23.336 4.45466 22.8275C5.17436 21.8504 5.79065 21.4382 6.58893 21.2196ZM2.74228 49.819C2.70506 41.9858 2.37416 34.1527 2.36176 26.3195C11.9687 26.7303 21.5925 26.4865 31.1661 25.5897C31.0875 33.6291 31.0916 41.6684 30.9841 49.7077C28.9615 49.7077 26.8479 49.4686 24.8253 49.4686C22.2609 49.4686 19.6923 49.4439 17.1279 49.4686C14.0878 49.5016 11.0395 49.6088 8.0035 49.6912L3.91282 49.7984C3.52816 49.8149 3.13108 49.8108 2.74228 49.819Z" fill="black"/>
<path d="M17.0121 43.5525C17.9551 42.9341 19.0802 42.4105 19.8454 41.5695C20.4695 40.8821 20.9298 40.0632 21.192 39.1737C21.4541 38.2842 21.5113 37.3471 21.3592 36.4325C21.3627 36.3626 21.3529 36.2927 21.3302 36.2264C20.8877 34.7793 19.8826 33.188 18.1495 33.2168C16.9087 33.2374 16.1559 34.2186 15.6678 35.3359C14.6793 34.1568 13.3722 33.3941 11.9949 34.5485C9.3312 36.7747 13.8562 41.4788 15.3369 43.0701C15.6844 43.4329 16.5199 43.8782 17.0121 43.5525Z" fill="black"/>
<path d="M51.938 31.8069C50.6971 27.8821 49.3901 23.9737 48.0996 20.0695C47.4461 18.0961 46.8008 16.1213 46.1639 14.1451C45.986 13.5803 45.6013 12.8506 45.5765 12.2652C45.5476 11.5519 46.0604 10.7769 46.3541 10.1502C46.773 9.3412 47.1404 8.50677 47.4543 7.65183C48.3064 5.04627 47.9052 1.72747 45.1919 0.387583C44.2571 -0.074163 43.1775 -0.20609 42.2965 0.457669C41.3245 1.19564 41.2418 2.43658 41.0557 3.5827C40.1621 2.8543 39.1163 2.3345 37.9949 2.06141C36.5803 1.71922 34.7852 1.96247 34.8018 3.7641C34.8183 5.56573 36.7665 7.29316 37.9784 8.39805C39.5915 9.85902 41.4013 11.0885 43.3554 12.0508C43.4836 12.562 43.6821 13.0773 43.8517 13.6051C44.8224 16.6284 45.8095 19.6449 46.8132 22.6544C44.9065 23.5944 42.8301 24.217 40.8323 24.9302C39.5212 25.3961 41.3121 27.2513 42.2593 26.9132C44.0213 26.2825 45.8495 25.7218 47.5784 24.9838C48.0196 26.3278 48.4594 27.6746 48.8979 29.0241C48.2361 29.4941 47.3096 29.6301 46.5527 29.9022C45.6287 30.235 44.723 30.6162 43.8393 31.0442C42.8094 31.5431 44.7658 33.3282 45.7089 32.8706C46.6311 32.418 47.5801 32.0215 48.5504 31.6832C48.9061 31.5637 49.2825 31.473 49.6548 31.3575L49.7541 31.6709C50.0477 32.6356 52.4219 33.32 51.938 31.8069ZM45.2084 6.18414C44.7948 7.6271 43.8352 8.74023 43.3554 10.1213C43.3554 10.1461 43.3554 10.1708 43.3554 10.1956C41.9478 9.4749 40.6408 8.57402 39.4674 7.51578C39.0538 7.12825 37.9287 6.20888 37.7467 5.71827C37.6475 4.01146 38.1438 3.53048 39.2358 4.27532C39.8992 4.60398 40.4684 5.09472 40.8902 5.70178C41.1508 6.03572 42.5902 7.11176 42.9583 6.28721C43.3719 5.31012 43.2603 4.01146 43.7401 3.12508C44.4225 1.8058 45.3449 2.47368 45.4979 3.7105C45.5644 4.54598 45.466 5.38634 45.2084 6.18414Z" fill="black"/>
</svg>
